HIERARCHY
ROOT Root
{
  OFFSET 0.0 0.0 0.0
  CHANNELS 6 Xposition Yposition Zposition Zrotation Yrotation Xrotation
  JOINT Hips
  {
    OFFSET 0.0 100.0 0.0
    CHANNELS 6 Xposition Yposition Zposition Zrotation Yrotation Xrotation
    JOINT Spine1
    {
      OFFSET -0.013727 5.003763 -0.053727
      CHANNELS 3 Zrotation Yrotation Xrotation
      JOINT Spine2
      {
        OFFSET -0.0 7.125301 -0.029825
        CHANNELS 3 Zrotation Yrotation Xrotation
        JOINT Chest
        {
          OFFSET -1e-06 7.550063 -0.815971
          CHANNELS 3 Zrotation Yrotation Xrotation
          JOINT Neck1
          {
            OFFSET -0.181677 26.311295 -0.553348
            CHANNELS 3 Zrotation Yrotation Xrotation
            JOINT Neck2
            {
              OFFSET -3e-06 7.709397 2.302585
              CHANNELS 3 Zrotation Yrotation Xrotation
              JOINT Head
              {
                OFFSET -5e-06 6.128916 1.953709
                CHANNELS 3 Zrotation Yrotation Xrotation
                JOINT HeadEnd
                {
                  OFFSET 0.003598 16.065403 -1.835379
                  CHANNELS 3 Zrotation Yrotation Xrotation
                }
                JOINT Jaw
                {
                  OFFSET 0.002637 0.475592 3.094941
                  CHANNELS 3 Zrotation Yrotation Xrotation
                }
                JOINT LeftEye
                {
                  OFFSET 3.206381 5.380205 7.586883
                  CHANNELS 3 Zrotation Yrotation Xrotation
                }
                JOINT RightEye
                {
                  OFFSET -3.22244 5.361869 7.558234
                  CHANNELS 3 Zrotation Yrotation Xrotation
                }
              }
            }
          }
          JOINT LeftShoulder
          {
            OFFSET 1.621652 23.237164 5.113413
            CHANNELS 3 Zrotation Yrotation Xrotation
            JOINT LeftArm
            {
              OFFSET 14.919846 2e-06 -5.502326
              CHANNELS 3 Zrotation Yrotation Xrotation
              JOINT LeftForeArm
              {
                OFFSET 28.739307 0.0 -0.002588
                CHANNELS 3 Zrotation Yrotation Xrotation
                JOINT LeftHand
                {
                  OFFSET 27.093981 -1e-06 0.002609
                  CHANNELS 3 Zrotation Yrotation Xrotation
                  JOINT LeftHandThumb1
                  {
                    OFFSET 2.276482 -1.392045 3.191413
                    CHANNELS 3 Zrotation Yrotation Xrotation
                    JOINT LeftHandThumb2
                    {
                      OFFSET 4.012836 -1.828127 1.641654
                      CHANNELS 3 Zrotation Yrotation Xrotation
                      JOINT LeftHandThumb3
                      {
                        OFFSET 2.798515 0.0 -3e-06
                        CHANNELS 3 Zrotation Yrotation Xrotation
                        JOINT LeftHandThumbEnd
                        {
                          OFFSET 3.180793 -4e-06 4e-06
                          CHANNELS 3 Zrotation Yrotation Xrotation
                        }
                      }
                    }
                  }
                  JOINT LeftHandIndex1
                  {
                    OFFSET 3.247555 -0.531998 2.296169
                    CHANNELS 3 Zrotation Yrotation Xrotation
                    JOINT LeftHandIndex2
                    {
                      OFFSET 6.364578 0.01206 0.1786
                      CHANNELS 3 Zrotation Yrotation Xrotation
                      JOINT LeftHandIndex3
                      {
                        OFFSET 3.662364 0.0 0.0
                        CHANNELS 3 Zrotation Yrotation Xrotation
                        JOINT LeftHandIndex4
                        {
                          OFFSET 2.329242 4e-06 4e-06
                          CHANNELS 3 Zrotation Yrotation Xrotation
                          JOINT LeftHandIndexEnd
                          {
                            OFFSET 2.759615 -0.180537 -0.113024
                            CHANNELS 3 Zrotation Yrotation Xrotation
                          }
                        }
                      }
                    }
                  }
                  JOINT LeftHandMiddle1
                  {
                    OFFSET 3.163495 0.240981 1.000332
                    CHANNELS 3 Zrotation Yrotation Xrotation
                    JOINT LeftHandMiddle2
                    {
                      OFFSET 6.19078 -0.259278 -1.002548
                      CHANNELS 3 Zrotation Yrotation Xrotation
                      JOINT LeftHandMiddle3
                      {
                        OFFSET 4.35652 -4e-06 -1e-06
                        CHANNELS 3 Zrotation Yrotation Xrotation
                        JOINT LeftHandMiddle4
                        {
                          OFFSET 2.996877 -8e-06 0.0
                          CHANNELS 3 Zrotation Yrotation Xrotation
                          JOINT LeftHandMiddleEnd
                          {
                            OFFSET 2.304287 -0.294569 -0.031741
                            CHANNELS 3 Zrotation Yrotation Xrotation
                          }
                        }
                      }
                    }
                  }
                  JOINT LeftHandRing1
                  {
                    OFFSET 2.882643 -0.053652 -0.322543
                    CHANNELS 3 Zrotation Yrotation Xrotation
                    JOINT LeftHandRing2
                    {
                      OFFSET 5.854541 -0.486202 -1.373841
                      CHANNELS 3 Zrotation Yrotation Xrotation
                      JOINT LeftHandRing3
                      {
                        OFFSET 4.350578 0.0 3e-06
                        CHANNELS 3 Zrotation Yrotation Xrotation
                        JOINT LeftHandRing4
                        {
                          OFFSET 2.651321 7e-06 2e-06
                          CHANNELS 3 Zrotation Yrotation Xrotation
                          JOINT LeftHandRingEnd
                          {
                            OFFSET 1.936105 0.077687 -7.1e-05
                            CHANNELS 3 Zrotation Yrotation Xrotation
                          }
                        }
                      }
                    }
                  }
                  JOINT LeftHandPinky1
                  {
                    OFFSET 2.8655 -0.310005 -1.600378
                    CHANNELS 3 Zrotation Yrotation Xrotation
                    JOINT LeftHandPinky2
                    {
                      OFFSET 5.087849 -1.331141 -1.77123
                      CHANNELS 3 Zrotation Yrotation Xrotation
                      JOINT LeftHandPinky3
                      {
                        OFFSET 3.070974 4e-06 0.0
                        CHANNELS 3 Zrotation Yrotation Xrotation
                        JOINT LeftHandPinky4
                        {
                          OFFSET 1.549672 0.0 1e-06
                          CHANNELS 3 Zrotation Yrotation Xrotation
                          JOINT LeftHandPinkyEnd
                          {
                            OFFSET 1.944893 -0.157802 0.057219
                            CHANNELS 3 Zrotation Yrotation Xrotation
                          }
                        }
                      }
                    }
                  }
                }
              }
            }
          }
          JOINT RightShoulder
          {
            OFFSET -1.380118 23.180309 5.214158
            CHANNELS 3 Zrotation Yrotation Xrotation
            JOINT RightArm
            {
              OFFSET -15.037196 1.2e-05 -5.545604
              CHANNELS 3 Zrotation Yrotation Xrotation
              JOINT RightForeArm
              {
                OFFSET -28.736639 2e-06 -0.002597
                CHANNELS 3 Zrotation Yrotation Xrotation
                JOINT RightHand
                {
                  OFFSET -27.133619 -0.0 0.002613
                  CHANNELS 3 Zrotation Yrotation Xrotation
                  JOINT RightHandThumb1
                  {
                    OFFSET -2.274032 -1.383988 3.163127
                    CHANNELS 3 Zrotation Yrotation Xrotation
                    JOINT RightHandThumb2
                    {
                      OFFSET -4.011429 -1.827466 1.640914
                      CHANNELS 3 Zrotation Yrotation Xrotation
                      JOINT RightHandThumb3
                      {
                        OFFSET -2.794935 -4e-06 -3e-06
                        CHANNELS 3 Zrotation Yrotation Xrotation
                        JOINT RightHandThumbEnd
                        {
                          OFFSET -3.183852 4e-06 1e-06
                          CHANNELS 3 Zrotation Yrotation Xrotation
                        }
                      }
                    }
                  }
                  JOINT RightHandIndex1
                  {
                    OFFSET -3.253266 -0.520057 2.282866
                    CHANNELS 3 Zrotation Yrotation Xrotation
                    JOINT RightHandIndex2
                    {
                      OFFSET -6.341917 0.012471 0.178266
                      CHANNELS 3 Zrotation Yrotation Xrotation
                      JOINT RightHandIndex3
                      {
                        OFFSET -3.654871 -8e-06 -0.0
                        CHANNELS 3 Zrotation Yrotation Xrotation
                        JOINT RightHandIndex4
                        {
                          OFFSET -2.327586 0.0 1e-06
                          CHANNELS 3 Zrotation Yrotation Xrotation
                          JOINT RightHandIndexEnd
                          {
                            OFFSET -2.76179 -0.180656 -0.113078
                            CHANNELS 3 Zrotation Yrotation Xrotation
                          }
                        }
                      }
                    }
                  }
                  JOINT RightHandMiddle1
                  {
                    OFFSET -3.168106 0.246593 1.00103
                    CHANNELS 3 Zrotation Yrotation Xrotation
                    JOINT RightHandMiddle2
                    {
                      OFFSET -6.180828 -0.258836 -1.000895
                      CHANNELS 3 Zrotation Yrotation Xrotation
                      JOINT RightHandMiddle3
                      {
                        OFFSET -4.348901 0.0 -0.0
                        CHANNELS 3 Zrotation Yrotation Xrotation
                        JOINT RightHandMiddle4
                        {
                          OFFSET -3.00024 -4e-06 -2e-06
                          CHANNELS 3 Zrotation Yrotation Xrotation
                          JOINT RightHandMiddleEnd
                          {
                            OFFSET -2.30252 -0.29437 -0.031706
                            CHANNELS 3 Zrotation Yrotation Xrotation
                          }
                        }
                      }
                    }
                  }
                  JOINT RightHandRing1
                  {
                    OFFSET -2.88569 -0.067952 -0.308858
                    CHANNELS 3 Zrotation Yrotation Xrotation
                    JOINT RightHandRing2
                    {
                      OFFSET -5.854198 -0.48613 -1.373731
                      CHANNELS 3 Zrotation Yrotation Xrotation
                      JOINT RightHandRing3
                      {
                        OFFSET -4.33881 -4e-06 -0.0
                        CHANNELS 3 Zrotation Yrotation Xrotation
                        JOINT RightHandRing4
                        {
                          OFFSET -2.654903 -4e-06 4e-06
                          CHANNELS 3 Zrotation Yrotation Xrotation
                          JOINT RightHandRingEnd
                          {
                            OFFSET -1.933568 0.077527 -5.2e-05
                            CHANNELS 3 Zrotation Yrotation Xrotation
                          }
                        }
                      }
                    }
                  }
                  JOINT RightHandPinky1
                  {
                    OFFSET -2.866425 -0.342796 -1.584145
                    CHANNELS 3 Zrotation Yrotation Xrotation
                    JOINT RightHandPinky2
                    {
                      OFFSET -5.091371 -1.332055 -1.772385
                      CHANNELS 3 Zrotation Yrotation Xrotation
                      JOINT RightHandPinky3
                      {
                        OFFSET -3.062664 -4e-06 1e-06
                        CHANNELS 3 Zrotation Yrotation Xrotation
                        JOINT RightHandPinky4
                        {
                          OFFSET -1.546529 4e-06 -2e-06
                          CHANNELS 3 Zrotation Yrotation Xrotation
                          JOINT RightHandPinkyEnd
                          {
                            OFFSET -1.945119 -0.157718 0.057211
                            CHANNELS 3 Zrotation Yrotation Xrotation
                          }
                        }
                      }
                    }
                  }
                }
              }
            }
          }
        }
      }
    }
    JOINT LeftLeg
    {
      OFFSET 10.043214 -8.434526 2.595655
      CHANNELS 3 Zrotation Yrotation Xrotation
      JOINT LeftShin
      {
        OFFSET -1e-06 -43.221752 -0.802913
        CHANNELS 3 Zrotation Yrotation Xrotation
        JOINT LeftFoot
        {
          OFFSET 1e-06 -42.155094 -3.481523
          CHANNELS 3 Zrotation Yrotation Xrotation
          JOINT LeftToeBase
          {
            OFFSET 0.0 -5.059472 13.231529
            CHANNELS 3 Zrotation Yrotation Xrotation
            JOINT LeftToeEnd
            {
              OFFSET -0.009607 -1.647619 6.513017
              CHANNELS 3 Zrotation Yrotation Xrotation
            }
          }
        }
      }
    }
    JOINT RightLeg
    {
      OFFSET -10.047278 -8.29526 2.620317
      CHANNELS 3 Zrotation Yrotation Xrotation
      JOINT RightShin
      {
        OFFSET 1e-06 -43.362206 -0.805556
        CHANNELS 3 Zrotation Yrotation Xrotation
        JOINT RightFoot
        {
          OFFSET 2e-06 -42.117393 -3.478398
          CHANNELS 3 Zrotation Yrotation Xrotation
          JOINT RightToeBase
          {
            OFFSET -0.0 -5.079609 13.284196
            CHANNELS 3 Zrotation Yrotation Xrotation
            JOINT RightToeEnd
            {
              OFFSET 0.009532 -1.634378 6.460591
              CHANNELS 3 Zrotation Yrotation Xrotation
            }
          }
        }
      }
    }
  }
}
MOTION
Frames: 4
Frame Time: 0.03333333333333333
1.126256 0.0 -7.343274 0.0 -0.0 0.0 0.0 94.176605 0.0 -1.045617 -0.199098 -0.745317 0.061791 -0.794176 2.966182 -0.411371 -3.287004 -3.500657 -0.100078 -5.330801 8.747474 1.053653 2.830335 2.637722 -1.092036 -1.181026 -3.726374 1.729182 -2.562849 -9.976089 -0.000272 0.000778 0.00342 0.021137 -0.079786 -0.047869 0.710806 -3.847905 -10.669876 -0.679348 3.706251 -10.722563 -10.251441 -9.228264 12.33879 -58.764641 -1.716096 1.013602 -0.344001 -39.638172 -0.192602 -7.822436 -1.303417 -5.340434 -5.89677 9.870771 0.754407 -10.927451 -0.375811 7.170293 0.00503 8.758844 0.013406 -16.070745 18.139362 5.927895 -1.833511 2.487543 -2.515924 -10.153491 4.66189 4.626872 -20.949783 0.000779 0.005031 -21.216709 2.427242 -3.587544 -0.002228 -0.001349 0.003663 -1.349201 2.205596 -0.742397 -21.328369 0.593391 2.997958 -13.799023 0.006814 0.014794 -23.831524 -0.260006 -0.841155 -60.604687 2.846208 -1.270567 -0.275833 1.631975 0.842534 -14.223982 0.127602 1.286423 -34.193676 -0.30211 0.981985 -20.055622 0.951545 1.225237 0.005831 0.003993 0.004626 -3.420687 0.727855 0.507913 -15.934427 -3.119512 2.971488 -6.347286 -0.006002 0.006998 -18.087337 3.633226 -4.87972 0.001052 -0.001838 -0.008075 16.437981 4.165548 12.567554 63.990192 -2.529462 9.001729 -0.250693 23.692368 -0.059106 6.752177 -3.625242 -1.322503 2.250348 -5.276241 -3.122902 14.2713 -0.825633 6.972209 0.004082 -12.678824 0.000212 15.867993 -18.25448 3.247809 1.664552 -1.953904 -2.873793 4.725918 -4.168694 5.000577 11.032247 0.002318 0.000812 12.115956 -3.73872 -2.870045 -0.004138 0.006065 0.003038 1.289262 -1.917005 -1.483584 14.792129 0.562434 3.865088 14.235724 -1.339669 -6.659941 19.652851 0.135396 -0.637879 51.015713 -0.546776 -5.85963 0.349601 -1.502708 -0.020163 20.22225 3.679912 2.322297 18.790943 0.00225 -0.001277 10.742463 -0.480984 1.399114 -0.001139 -0.000751 9.3e-05 3.269761 0.322746 -0.571027 21.502069 11.823264 2.264339 8.14288 -0.003546 0.001971 18.372189 -3.801304 -4.930198 0.007792 0.000765 -0.001072 9.898025 11.112159 21.122559 0.1376 -1.129553 16.391663 -4.72886 -14.497092 -4.61414 2.052834 -1.823161 -21.865126 0.000521 0.000973 0.001982 3.747862 -8.252234 -30.206518 0.477152 0.448182 9.884431 -2.201669 -4.876026 11.198911 -1.354239 1.084941 -3.957108 0.001212 0.004499 0.000392 
0.257156 0.0 -2.009604 0.0 -0.0 0.0 0.0 94.232544 0.0 -2.206045 0.148714 -0.948295 0.933091 -0.701017 2.622221 -0.23556 -3.321341 -3.694454 0.387822 -5.230687 8.793472 0.375789 2.939969 2.826859 -0.981676 -1.020452 -3.74627 1.534948 -2.278964 -9.527503 0.000132 0.001121 -0.002594 0.030757 0.019186 -0.038188 0.728236 -3.755823 -10.647543 -0.677868 3.804732 -10.704263 -10.642625 -8.378433 12.407462 -59.814713 -0.784445 1.775509 -0.377977 -39.974155 -0.078174 -7.61615 -1.228273 -4.950771 -5.889523 9.838658 0.710378 -10.944943 -0.371026 7.150469 0.001117 8.78078 -0.014535 -16.163504 18.199205 5.954082 -1.844998 2.490584 -2.499223 -10.159835 4.678056 4.609748 -20.976509 -0.001021 0.014916 -21.218384 2.453112 -3.575587 0.002016 -0.006524 -0.007656 -1.367238 2.228037 -0.743808 -21.339418 0.59127 3.011395 -13.824155 -0.000704 -0.00041 -23.847088 -0.23241 -0.845871 -60.588356 2.790162 -1.260841 -0.292114 1.668471 0.830266 -14.225049 0.104041 1.318905 -34.2463 -0.295714 0.966408 -20.061045 0.957661 1.219082 0.003709 0.004239 -0.00737 -3.449591 0.766207 0.504156 -15.924824 -3.147398 2.995931 -6.351793 0.001172 0.006065 -18.095156 3.643068 -4.910527 -0.007485 -0.012714 0.002776 16.642864 4.379114 12.953669 63.266689 -2.855266 8.922251 -0.278716 23.404388 -0.095291 6.970467 -3.315929 -2.11603 2.253189 -5.259587 -3.227841 14.278854 -0.826491 6.937352 0.002847 -12.701344 -0.001969 16.209694 -18.484686 2.990391 1.666255 -1.955695 -2.872221 4.733995 -4.16899 4.997083 11.028992 0.003407 0.003382 12.127985 -3.739223 -2.861461 -0.01186 -0.005512 -0.001579 1.293731 -1.923864 -1.485862 14.817542 0.570828 3.861346 14.276304 -1.342056 -6.659997 19.66995 0.143845 -0.651773 51.282223 -0.553569 -6.023204 0.356545 -1.50668 -0.023052 20.233353 3.679215 2.325624 18.809183 0.001165 -0.001069 10.780294 -0.469604 1.394384 -0.010349 -0.001447 -0.000553 3.289706 0.30656 -0.572394 21.491941 11.823826 2.275163 8.151282 -0.001696 -0.005293 18.38868 -3.796661 -4.945204 5.4e-05 -0.001324 -0.000193 12.57263 10.634585 19.742373 0.062074 -1.329068 23.795406 -4.650717 -13.995697 2.912166 2.263281 -1.689692 -30.859129 -0.000682 3.5e-05 -0.001845 4.942921 -7.600609 -30.635912 0.332539 0.350641 16.476822 -2.398527 -4.670268 11.478869 -1.407301 0.978244 -3.162143 3e-05 -0.002898 0.004961 
-0.743779 0.0 3.624731 0.0 -0.0 0.0 0.0 94.613426 0.0 -3.314307 0.070136 -1.751336 1.576316 -0.64099 2.578567 -0.058164 -3.149826 -3.740623 1.089817 -5.18603 8.774779 -0.310772 3.032211 3.452458 -0.818795 -0.734783 -3.684904 1.460326 -1.949989 -9.654684 0.000354 0.002016 -0.000789 0.025792 0.040935 0.004327 0.712271 -3.734756 -10.627987 -0.672564 3.817955 -10.663039 -10.554558 -8.178209 12.415381 -61.851784 0.420461 2.075943 -0.464714 -39.342472 -0.058861 -8.008106 -0.986366 -4.233952 -5.912111 9.796636 0.899214 -10.886806 -0.29263 7.211281 0.007788 8.787612 0.019901 -16.292215 18.099583 5.880863 -1.848313 2.480442 -2.485552 -10.185377 4.691442 4.604496 -20.996723 -0.006512 -0.016068 -21.287205 2.445976 -3.593136 -0.006544 0.000468 0.001671 -1.367447 2.243547 -0.725831 -21.384291 0.555431 2.990592 -13.846843 -0.002563 0.004331 -23.927231 -0.266716 -0.82139 -60.501427 2.904234 -1.342248 -0.304397 1.689001 0.854101 -14.232851 0.064995 1.2823 -34.297726 -0.302162 0.965495 -20.08112 0.958434 1.22686 0.010348 0.002575 -0.002383 -3.473801 0.80021 0.502318 -15.941539 -3.208385 2.993007 -6.344627 0.008645 -0.007331 -18.147388 3.639182 -4.903757 0.000502 -0.000819 -0.003401 16.279739 4.899755 13.814608 62.895546 -2.925762 9.272966 -0.370204 23.605379 -0.119823 7.257932 -3.157923 -3.669104 2.249993 -5.230455 -3.107211 14.27444 -0.845389 6.984845 -0.000686 -12.690827 0.003225 16.420063 -18.616976 2.862705 1.668849 -1.954863 -2.886874 4.738454 -4.176695 4.99822 11.0239 0.001939 -0.002586 12.130479 -3.727752 -2.871018 -0.011808 -0.000587 -0.00141 1.297614 -1.935905 -1.505816 14.821713 0.571889 3.860202 14.276347 -1.341347 -6.669502 19.677238 0.132929 -0.658756 51.30975 -0.698708 -6.256538 0.360398 -1.517023 -0.039361 20.236683 3.684481 2.30828 18.816168 -0.004026 -0.0015 10.765977 -0.488623 1.40557 -3.5e-05 -0.001078 0.00075 3.300942 0.303391 -0.602869 21.494301 11.815896 2.258866 8.176738 0.002275 0.000672 18.449165 -3.791089 -4.949857 -0.007757 -0.000427 0.000502 14.68837 9.623099 16.672935 -0.083731 -1.363099 33.818844 -4.922417 -12.396513 13.604413 2.351264 -1.474981 -32.39719 0.001 0.000267 -0.01147 6.223331 -7.097468 -28.987947 0.191621 0.136115 21.757246 -2.847751 -4.172865 8.663357 -1.407005 0.84569 -2.419911 0.000826 0.002057 -0.002357 
-1.638248 0.0 8.405609 0.0 -0.0 0.0 0.0 95.113281 0.0 -4.311954 -0.041408 -2.590137 2.14257 -0.548458 2.821266 0.105863 -2.936651 -3.639713 1.509503 -4.921474 8.615413 -0.598575 3.062211 3.908807 -0.749126 -0.862771 -3.632244 1.333206 -1.7716 -9.726617 1.8e-05 0.001561 0.0 0.027835 0.063366 0.028307 0.711137 -3.709456 -10.596809 -0.667354 3.835773 -10.616555 -10.705584 -7.49501 12.277916 -63.125229 1.806945 2.97698 -0.479025 -38.117451 0.048196 -8.55514 -0.494115 -3.350532 -5.872301 9.835829 0.744985 -10.911772 -0.344743 7.188946 -0.002558 8.787766 0.00498 -16.612814 18.402342 5.961836 -1.844733 2.498646 -2.527379 -10.174974 4.686479 4.63719 -21.013321 0.001498 -0.006454 -21.262691 2.452621 -3.591597 0.007673 0.000377 -0.006402 -1.373128 2.24685 -0.734613 -21.357508 0.573215 2.979705 -13.854765 -0.002509 0.006181 -23.950502 -0.247078 -0.87866 -60.921005 2.735737 -1.180062 -0.302845 1.702431 0.824397 -14.225579 0.072219 1.315012 -34.25032 -0.285054 0.941987 -20.05645 0.959922 1.187138 -0.004125 0.001932 0.000995 -3.466597 0.830749 0.48216 -15.925302 -3.208552 3.01987 -6.334579 0.005824 -0.009546 -18.167765 3.657641 -4.933596 0.001596 0.000811 -0.002843 15.816406 5.213556 13.87926 62.581539 -2.757895 9.379763 -0.436392 24.468906 -0.167153 7.359191 -2.820647 -4.786425 2.208922 -5.208795 -3.225094 14.288513 -0.810091 6.905753 0.01409 -12.696016 -0.008767 16.363583 -18.688396 2.801915 1.667144 -1.957716 -2.88355 4.724203 -4.177755 4.991658 11.020438 -0.003222 -0.001769 12.113598 -3.741148 -2.876314 7.6e-05 -0.006623 0.001693 1.29426 -1.946541 -1.497156 14.787988 0.579431 3.867554 14.251867 -1.355554 -6.668886 19.61795 0.141884 -0.663567 50.88385 -0.696889 -6.234274 0.357393 -1.538892 -0.033038 20.21282 3.703719 2.31971 18.794344 0.000637 -0.004584 10.764677 -0.478674 1.398234 -0.008258 -0.002516 0.002846 3.275019 0.271494 -0.585636 21.480797 11.853895 2.281327 8.15275 0.001728 -0.001257 18.364981 -3.803424 -4.950084 0.015458 -0.000107 0.00209 15.484603 8.299659 11.89982 -0.026837 -1.43007 44.659164 -4.292566 -8.799213 22.616482 2.171029 -1.64395 -16.838371 -0.000268 0.000273 0.004161 7.377469 -6.970717 -26.235573 0.087359 0.0811 24.813723 -3.236248 -3.996048 3.61047 -1.409218 0.87206 -2.414728 -0.000521 -0.00461 0.004655 
